<svg xmlns="http://www.w3.org/2000/svg" viewBox="0 0 64 64" role="img" aria-label="APIM Policy Studio">
  <defs>
    <linearGradient id="sky" x1="10" x2="54" y1="6" y2="58" gradientUnits="userSpaceOnUse">
      <stop stop-color="#67e8f9"/>
      <stop offset="0.5" stop-color="#38bdf8"/>
      <stop offset="1" stop-color="#2563eb"/>
    </linearGradient>
    <linearGradient id="panel" x1="14" x2="50" y1="12" y2="52" gradientUnits="userSpaceOnUse">
      <stop stop-color="#ffffff"/>
      <stop offset="1" stop-color="#e0f2fe"/>
    </linearGradient>
  </defs>
  <rect width="64" height="64" rx="18" fill="url(#sky)"/>
  <path fill="#ffffff" fill-opacity="0.28" d="M14 10h36a4 4 0 0 1 4 4v36a4 4 0 0 1-4 4H14a4 4 0 0 1-4-4V14a4 4 0 0 1 4-4Z"/>
  <path fill="url(#panel)" d="M17 17h30a6 6 0 0 1 6 6v24H17a6 6 0 0 1-6-6V23a6 6 0 0 1 6-6Z"/>
  <path fill="#1d4ed8" d="M22.7 26.2 15.9 32l6.8 5.8a2.4 2.4 0 1 1-3.1 3.6l-9-7.7a2.4 2.4 0 0 1 0-3.6l9-7.7a2.4 2.4 0 1 1 3.1 3.8Zm18.6 0a2.4 2.4 0 1 1 3.1-3.8l9 7.7a2.4 2.4 0 0 1 0 3.6l-9 7.7a2.4 2.4 0 1 1-3.1-3.6L48.1 32l-6.8-5.8Z"/>
  <path fill="#0f172a" d="M36.8 20.3a2.5 2.5 0 0 1 1.8 3l-5.5 19.9a2.5 2.5 0 0 1-4.8-1.3l5.5-19.9a2.5 2.5 0 0 1 3-1.7Z"/>
  <circle cx="46" cy="18" r="6" fill="#0f172a"/>
  <path fill="#67e8f9" d="M43 18a3 3 0 1 1 6 0 3 3 0 0 1-6 0Z"/>
</svg>
